<mxfile host="app.diagrams.net" modified="2024-07-03T13:19:20.736Z" agent="Mozilla/5.0 (Windows NT 10.0; Win64; x64) AppleWebKit/537.36 (KHTML, like Gecko) Chrome/126.0.0.0 Safari/537.36" version="24.6.2" etag="DDv6BUA9rhds7otmXHUh" type="github">
  <diagram name="Halaman-1" id="1m7Ub_lVGb474B9oalZO">
    <mxGraphModel>
      <root>
        <mxCell id="0" />
        <mxCell id="1" parent="0" />
      </root>
    </mxGraphModel>
  </diagram>
</mxfile>
